<svg width="17" height="15" viewBox="0 0 17 15" fill="none" xmlns="http://www.w3.org/2000/svg">
<path d="M0.53575 2.67825H0.611827C0.728766 3.1377 0.995454 3.54509 1.36976 3.83606C1.74407 4.12703 2.20465 4.285 2.67875 4.285C3.15285 4.285 3.61343 4.12703 3.98774 3.83606C4.36205 3.54509 4.62874 3.1377 4.74567 2.67825H15.5368C15.6788 2.67825 15.8151 2.6218 15.9156 2.52133C16.0161 2.42086 16.0725 2.28459 16.0725 2.1425C16.0725 2.00041 16.0161 1.86414 15.9156 1.76367C15.8151 1.66319 15.6788 1.60675 15.5368 1.60675H4.74567C4.62874 1.1473 4.36205 0.739907 3.98774 0.448935C3.61343 0.157964 3.15285 0 2.67875 0C2.20465 0 1.74407 0.157964 1.36976 0.448935C0.995454 0.739907 0.728766 1.1473 0.611827 1.60675H0.53575C0.39366 1.60675 0.25739 1.66319 0.156918 1.76367C0.0564449 1.86414 0 2.00041 0 2.1425C0 2.28459 0.0564449 2.42086 0.156918 2.52133C0.25739 2.6218 0.39366 2.67825 0.53575 2.67825ZM2.67875 1.071C2.89067 1.071 3.09784 1.13384 3.27404 1.25158C3.45025 1.36932 3.58759 1.53666 3.66869 1.73245C3.74979 1.92824 3.77101 2.14369 3.72966 2.35154C3.68832 2.55939 3.58627 2.75031 3.43642 2.90016C3.28656 3.05002 3.09564 3.15207 2.88779 3.19341C2.67994 3.23475 2.4645 3.21354 2.2687 3.13244C2.07291 3.05134 1.90557 2.914 1.78783 2.73779C1.67009 2.56158 1.60725 2.35442 1.60725 2.1425C1.60725 1.85832 1.72014 1.58578 1.92109 1.38483C2.12203 1.18389 2.39457 1.071 2.67875 1.071ZM15.5368 6.96425H15.4607C15.3437 6.5048 15.077 6.09741 14.7027 5.80644C14.3284 5.51546 13.8679 5.3575 13.3938 5.3575C12.9197 5.3575 12.4591 5.51546 12.0848 5.80644C11.7105 6.09741 11.4438 6.5048 11.3268 6.96425H0.53575C0.39366 6.96425 0.25739 7.02069 0.156918 7.12117C0.0564449 7.22164 0 7.35791 0 7.5C0 7.64209 0.0564449 7.77836 0.156918 7.87883C0.25739 7.9793 0.39366 8.03575 0.53575 8.03575H11.3268C11.4438 8.4952 11.7105 8.90259 12.0848 9.19356C12.4591 9.48454 12.9197 9.6425 13.3938 9.6425C13.8679 9.6425 14.3284 9.48454 14.7027 9.19356C15.077 8.90259 15.3437 8.4952 15.4607 8.03575H15.5368C15.6788 8.03575 15.8151 7.9793 15.9156 7.87883C16.0161 7.77836 16.0725 7.64209 16.0725 7.5C16.0725 7.35791 16.0161 7.22164 15.9156 7.12117C15.8151 7.02069 15.6788 6.96425 15.5368 6.96425ZM13.3938 8.5715C13.1818 8.5715 12.9747 8.50866 12.7985 8.39092C12.6223 8.27318 12.4849 8.10584 12.4038 7.91004C12.3227 7.71425 12.3015 7.49881 12.3428 7.29096C12.3842 7.08311 12.4862 6.89219 12.6361 6.74233C12.7859 6.59248 12.9769 6.49043 13.1847 6.44909C13.3926 6.40774 13.608 6.42896 13.8038 6.51006C13.9996 6.59116 14.1669 6.7285 14.2847 6.90471C14.4024 7.08091 14.4653 7.28808 14.4653 7.5C14.4653 7.78418 14.3524 8.05672 14.1514 8.25766C13.9505 8.45861 13.6779 8.5715 13.3938 8.5715ZM15.5368 12.3217H10.1032C9.98624 11.8623 9.71955 11.4549 9.34524 11.1639C8.97093 10.873 8.51035 10.715 8.03625 10.715C7.56215 10.715 7.10157 10.873 6.72726 11.1639C6.35296 11.4549 6.08627 11.8623 5.96933 12.3217H0.53575C0.39366 12.3217 0.25739 12.3782 0.156918 12.4787C0.0564449 12.5791 0 12.7154 0 12.8575C0 12.9996 0.0564449 13.1359 0.156918 13.2363C0.25739 13.3368 0.39366 13.3933 0.53575 13.3933H5.96933C6.08627 13.8527 6.35296 14.2601 6.72726 14.5511C7.10157 14.842 7.56215 15 8.03625 15C8.51035 15 8.97093 14.842 9.34524 14.5511C9.71955 14.2601 9.98624 13.8527 10.1032 13.3933H15.5368C15.6788 13.3933 15.8151 13.3368 15.9156 13.2363C16.0161 13.1359 16.0725 12.9996 16.0725 12.8575C16.0725 12.7154 16.0161 12.5791 15.9156 12.4787C15.8151 12.3782 15.6788 12.3217 15.5368 12.3217ZM8.03625 13.929C7.82433 13.929 7.61717 13.8662 7.44096 13.7484C7.26475 13.6307 7.12741 13.4633 7.04631 13.2675C6.96521 13.0718 6.944 12.8563 6.98534 12.6485C7.02668 12.4406 7.12873 12.2497 7.27859 12.0998C7.42844 11.95 7.61936 11.8479 7.82721 11.8066C8.03506 11.7652 8.25051 11.7865 8.4463 11.8676C8.64209 11.9487 8.80943 12.086 8.92717 12.2622C9.04491 12.4384 9.10775 12.6456 9.10775 12.8575C9.10775 13.1417 8.99486 13.4142 8.79392 13.6152C8.59297 13.8161 8.32043 13.929 8.03625 13.929Z" fill="black" fill-opacity="0.6"/>
</svg>
