<svg width="21" height="20" viewBox="0 0 21 20" fill="none" xmlns="http://www.w3.org/2000/svg">
<path d="M14.7746 13.7328C15.9742 12.2806 16.7319 10.418 16.7319 8.36596C16.7319 3.75679 12.9751 0 8.36596 0C3.75679 0 0 3.75679 0 8.36596C0 12.9751 3.75679 16.7319 8.36596 16.7319C10.3864 16.7319 12.2806 16.0058 13.7328 14.7746L19.349 19.779C19.5069 19.9369 19.6963 20 19.8857 20C20.0751 20 20.2646 19.9369 20.4224 19.779C20.7065 19.4949 20.7065 18.9898 20.4224 18.7056L14.7746 13.7328ZM8.33439 15.2166C4.54603 15.2166 1.48377 12.1543 1.48377 8.36596C1.48377 4.5776 4.54603 1.51534 8.33439 1.51534C12.1227 1.51534 15.185 4.5776 15.185 8.36596C15.185 12.1543 12.1227 15.2166 8.33439 15.2166Z" fill="black" fill-opacity="0.6"/>
</svg>
