<svg width="48" height="30" viewBox="0 0 48 30" fill="none" xmlns="http://www.w3.org/2000/svg">
<path d="M29.4066 15.3479C29.4066 18.1855 28.8131 20.7128 27.6262 22.9297C26.4393 25.1467 24.7476 26.8793 22.5512 28.1275C20.3547 29.3758 17.8377 30 15 30C12.9673 30 11.0232 29.6044 9.16779 28.8131C7.31242 28.0218 5.71624 26.9577 4.37925 25.6207C3.04228 24.2838 1.97817 22.6876 1.1869 20.8322C0.395634 18.9768 0 17.0327 0 15C0 12.9673 0.395634 11.0232 1.1869 9.16779C1.97817 7.3124 3.04228 5.71622 4.37925 4.37925C5.71624 3.04228 7.31242 1.97817 9.16779 1.1869C11.0232 0.395633 12.9673 0 15 0C18.9018 0 22.251 1.30968 25.0478 3.92905L20.9754 7.83766C19.3793 6.29603 17.3875 5.52521 15 5.52521C13.322 5.52521 11.7701 5.94814 10.3445 6.79399C8.91883 7.63983 7.7899 8.78922 6.9577 10.2422C6.12551 11.6951 5.70941 13.281 5.70941 15C5.70941 16.719 6.12551 18.3049 6.9577 19.7578C7.7899 21.2108 8.91883 22.3602 10.3445 23.206C11.7701 24.0518 13.3219 24.4748 15 24.4748C16.1323 24.4748 17.1726 24.3179 18.1207 24.0041C19.0689 23.6903 19.8499 23.2981 20.4638 22.8274C21.0777 22.3568 21.6132 21.8213 22.0702 21.221C22.5273 20.6207 22.8615 20.0546 23.073 19.5225C23.2844 18.9904 23.4311 18.4857 23.5129 18.0082H15V12.8513H29.161C29.3247 13.7108 29.4065 14.543 29.4065 15.3479L29.4066 15.3479ZM47.1487 12.8513V17.1487H42.8718V21.4256H38.5744V17.1487H34.2974V12.8513H38.5744V8.57436H42.8718V12.8513H47.1487Z" fill="black"/>
</svg>
