<svg width="38" height="27" viewBox="0 0 38 27" fill="none" xmlns="http://www.w3.org/2000/svg">
<path d="M37.9912 9.4106C38.0766 6.93984 37.5363 4.48756 36.4204 2.28147C35.6633 1.37625 34.6126 0.765378 33.4514 0.555284C28.6483 0.119467 23.8254 -0.0591607 19.0032 0.0201675C14.1987 -0.0627612 9.39307 0.110102 4.60687 0.538023C3.66061 0.710152 2.78491 1.154 2.08664 1.8154C0.533073 3.24813 0.360454 5.69931 0.187836 7.77073C-0.0626121 11.4951 -0.0626121 15.232 0.187836 18.9564C0.237775 20.1223 0.411366 21.2795 0.705691 22.4088C0.913826 23.2806 1.33492 24.0872 1.93128 24.7564C2.6343 25.4528 3.53039 25.9219 4.50329 26.1028C8.2248 26.5622 11.9746 26.7525 15.7235 26.6724C21.7651 26.7587 27.0645 26.6724 33.3306 26.1891C34.3273 26.0193 35.2487 25.5496 35.9716 24.8427C36.4549 24.3592 36.8159 23.7674 37.0246 23.1165C37.6419 21.2222 37.9451 19.2397 37.9222 17.2475C37.9912 16.2808 37.9912 10.4463 37.9912 9.4106ZM15.1021 18.2832V7.59811L25.3211 12.9665C22.4556 14.5546 18.6753 16.3499 15.1021 18.2832Z" fill="black"/>
</svg>
