<svg width="11" height="13" viewBox="0 0 11 13" fill="none" xmlns="http://www.w3.org/2000/svg">
<path fill-rule="evenodd" clip-rule="evenodd" d="M5.82559 6.28549L10.7702 11.2301C11.0766 11.5365 11.0766 12.0347 10.7702 12.3411C10.4637 12.6475 9.96559 12.6475 9.65915 12.3411L4.15906 6.841C3.85184 6.53457 3.85184 6.03641 4.15906 5.72998L9.65915 0.229881C9.96559 -0.0765524 10.4637 -0.0765524 10.7702 0.229881C11.0766 0.536316 11.0766 1.03447 10.7702 1.3409L5.82559 6.28549ZM1.89694 6.28549L6.84153 11.2301C7.14797 11.5365 7.14797 12.0347 6.84153 12.3411C6.5351 12.6475 6.03695 12.6475 5.73051 12.3411L0.230414 6.841C-0.0768051 6.53457 -0.0768051 6.03641 0.230414 5.72998L5.73051 0.229881C6.03695 -0.0765524 6.5351 -0.0765524 6.84153 0.229881C7.14797 0.536316 7.14797 1.03447 6.84153 1.3409L1.89694 6.28549Z" fill="black" fill-opacity="0.6"/>
</svg>
