<svg width="11" height="13" viewBox="0 0 11 13" fill="none" xmlns="http://www.w3.org/2000/svg">
<path fill-rule="evenodd" clip-rule="evenodd" d="M5.17441 6.28543L0.229826 1.34084C-0.0766085 1.03441 -0.0766085 0.53626 0.229826 0.229826C0.53626 -0.0766085 1.03441 -0.0766085 1.34085 0.229826L6.84094 5.72992C7.14816 6.03636 7.14816 6.53451 6.84094 6.84094L1.34085 12.341C1.03441 12.6475 0.53626 12.6475 0.229826 12.341C-0.0766085 12.0346 -0.0766085 11.5365 0.229826 11.23L5.17441 6.28543ZM9.10306 6.28543L4.15847 1.34084C3.85203 1.03441 3.85203 0.53626 4.15847 0.229826C4.4649 -0.0766085 4.96305 -0.0766085 5.26949 0.229826L10.7696 5.72992C11.0768 6.03636 11.0768 6.53451 10.7696 6.84094L5.26949 12.341C4.96305 12.6475 4.4649 12.6475 4.15847 12.341C3.85203 12.0346 3.85203 11.5365 4.15847 11.23L9.10306 6.28543Z" fill="black" fill-opacity="0.6"/>
</svg>
